<?xml version="1.0" encoding="UTF-8" standalone="no"?>
<svg
   version="1.0"
   width="57.53434pt"
   height="105.74394pt"
   viewBox="0 0 57.53434 105.74394"
   preserveAspectRatio="xMidYMid"
   id="svg1"
   sodipodi:docname="logo_smallsvg.svg"
   inkscape:version="1.3 (0e150ed, 2023-07-21)"
   xmlns:inkscape="http://www.inkscape.org/namespaces/inkscape"
   xmlns:sodipodi="http://sodipodi.sourceforge.net/DTD/sodipodi-0.dtd"
   xmlns="http://www.w3.org/2000/svg"
   xmlns:svg="http://www.w3.org/2000/svg">
  <defs
     id="defs1" />
  <sodipodi:namedview
     id="namedview1"
     pagecolor="#ffffff"
     bordercolor="#999999"
     borderopacity="1"
     inkscape:showpageshadow="0"
     inkscape:pageopacity="0"
     inkscape:pagecheckerboard="0"
     inkscape:deskcolor="#d1d1d1"
     inkscape:document-units="pt"
     inkscape:zoom="5.0717063"
     inkscape:cx="10.74589"
     inkscape:cy="65.756962"
     inkscape:window-width="1728"
     inkscape:window-height="992"
     inkscape:window-x="0"
     inkscape:window-y="38"
     inkscape:window-maximized="0"
     inkscape:current-layer="g1" />
  <metadata
     id="metadata1">&#10;Created by potrace 1.15, written by Peter Selinger 2001-2017&#10;</metadata>
  <g
     transform="matrix(0.1,0,0,-0.1,-1004.9207,512.58522)"
     fill="#000000"
     stroke="none"
     id="g1">
    <path
       d="m 10500.643,4151.2664 c 4.752,-1.3148 41.436,53.0315 52.31,77.1683 16.278,36.3258 25.548,74.6561 26.048,108.0482 0.16,13.8899 -3.818,61.0938 -7.49,88.3211 -7.612,55.9359 -40.556,147.0125 -77.07,212.2863 -14.758,26.5861 -55.569,89.5438 -73.432,113.2275 -18.396,24.7055 -36.216,45.8125 -52.565,62.3961 -4.289,4.4154 -7.901,8.2357 -7.998,8.598 -0.356,1.3281 9.771,3.1358 13.331,2.4074 4.14,-0.9613 13.019,-6.0878 22.416,-13.1462 6.939,-5.1289 13.955,-7.6488 18.302,-6.4841 1.57,0.4206 10.243,5.7211 19.27,11.634 8.995,6.0336 16.735,10.9546 16.977,11.0193 0.362,0.097 -4.049,-8.0729 -9.882,-18.1771 l -10.607,-18.3711 3.394,-3.4905 c 1.822,-1.9706 5.514,-5.1225 8.093,-7.0197 5.77,-4.1479 7.307,-3.6066 20.791,5.9592 15.133,10.6547 14.609,11.1614 7.15,-6.8839 -3.669,-9.0065 -6.598,-16.909 -6.372,-17.7542 0.194,-0.7244 7.136,-7.7938 15.334,-15.691 l 14.857,-14.3953 7.16,5.1538 c 3.894,2.8551 7.345,4.9446 7.652,4.7679 0.426,-0.1444 -1.141,-2.5055 -3.312,-5.0284 -4.905,-5.8436 -5.562,-8.2197 -3.944,-14.2567 2.223,-7.8158 8.668,-10.6182 16.643,-7.0577 5.537,2.5188 15.817,11.4849 20.946,18.4238 2.106,2.7643 3.449,4.0301 3.137,2.7817 -0.625,-2.4969 -19.776,-33.8983 -24.077,-39.5801 -2.315,-2.9498 -2.53,-4.5604 -1.454,-9.0602 2.282,-9.4825 9.602,-10.2387 19.802,-1.941 2.662,2.1369 4.851,3.6292 4.916,3.3877 0.06,-0.2415 -2.145,-4.0688 -4.829,-8.5408 -6.759,-10.9991 -7.809,-15.292 -6.531,-26.3378 0.448,-5.0561 1.155,-16.3843 1.39,-24.9916 0.554,-18.4867 0.886,-20.2094 3.372,-18.3786 6.83,4.936 16.243,18.5873 26.019,37.6419 13.657,26.306 17.093,34.7325 19.863,48.5449 l 2.12,10.921 -9.99,38.7341 -9.991,38.734 -11.124,10.6073 c -22.991,22.0509 -45.727,39.7703 -61.236,47.9083 -6.027,3.1733 -29.096,10.0623 -49.795,14.8688 -6.911,1.6423 -9.69,2.8388 -8.765,3.7336 0.836,0.7418 8.861,3.1509 17.828,5.4243 l 16.365,4.126 13.526,14.236 c 13.647,14.2683 23.83,23.5966 26.728,24.3731 0.845,0.2264 -4.611,-8.8708 -12.062,-20.1846 -7.604,-11.2255 -14.274,-22.0715 -15.028,-24.0853 l -1.518,-3.5125 5.313,1.4235 c 6.882,1.8441 16.313,-0.029 30.484,-6.0669 20.156,-8.5754 26.219,-8.5037 36.16,0.7599 4.271,3.862 5.711,4.7655 4.804,2.84 -0.643,-1.4662 -3.133,-6.6627 -5.325,-11.5207 -4.217,-8.8944 -5.499,-13.7673 -3.567,-13.2497 2.173,0.5823 10.244,-8.7724 16.949,-19.7875 7.172,-11.7956 11.446,-17.1209 14.249,-17.9228 1.007,-0.3772 3.378,2.8464 6.166,8.3815 l 4.611,8.8707 -2.559,-8.3208 c -4.684,-15.3607 -4.584,-17.6634 0.635,-32.3117 4.775,-13.4733 8.842,-20.9245 14.105,-25.5964 l 3.08,-2.7984 3.056,9.36 c 5.512,16.6178 13.957,71.5504 14.078,91.3825 0.01,4.7909 -1.247,12.8656 -3.221,20.2307 l -3.147,12.2272 -13.634,15.6286 c -27.204,31.0159 -47.488,45.3804 -78.622,55.8027 -23.755,7.9993 -31.961,9.1651 -47.636,7.2944 -18.79,-2.3173 -32.567,-8.8559 -80.071,-38.2783 -15.545,-9.6004 -29.111,-17.8941 -30.1,-18.5475 -1.77,-1.1213 -1.885,0.2715 -1.116,10.4421 1.301,16.3953 3.409,24.4659 11.197,42.729 7.179,16.6762 13.823,29.068 20.961,39.1335 l 4.116,5.8909 -6.161,14.7841 c -3.505,8.2491 -6.848,15.8945 -7.566,17.1255 -2.84,4.8037 1.57,0.4206 12.158,-12.5303 6.281,-7.505 11.594,-13.3283 12.077,-13.1989 0.572,0.2825 8.547,3.843 17.906,8.0332 l 16.884,7.5005 -0.213,3.6956 c -0.156,2.0289 -0.829,5.9896 -1.452,8.799 l -1.327,4.9504 3.621,-4.3357 c 4.121,-5.2369 9.132,-7.5176 17.482,-8.2565 22.927,-2.0097 26.607,-2.7058 31.539,-5.655 6.156,-3.6562 8.426,-3.4361 11.102,1.5513 3.438,6.4859 3.579,16.1001 0.215,28.6571 -1.683,6.2786 -2.591,11.5998 -1.987,11.7616 1.449,0.3882 7.582,-18.1562 14.474,-43.874 l 6.017,-22.4577 6.318,-4.26 c 8.099,-5.5945 12.746,-6.0318 17.467,-1.9196 7.319,6.4906 8.081,22.4827 2.193,44.4575 -2.103,7.8481 -5.036,16.3797 -6.416,19.1157 -3.131,5.8903 -25.078,30.809 -43.774,49.8698 l -13.39,13.7528 -13.763,1.6181 c -17.226,1.9843 -26.501,1.8283 -39.679,-0.6675 -15.263,-2.925 -39.478,-14.4602 -65.965,-31.5219 -6.509,-4.2028 -7.071,-5.0007 -14.082,-20.8553 -4.031,-9.1035 -8.967,-22.0731 -11.093,-29.1131 -2.037,-6.8868 -4.893,-15.5461 -6.378,-19.1793 -5.555,-14.0413 -7.143,-25.9843 -6.643,-53.932 0.1,-7.609 -0.257,-13.5276 -0.87,-13.174 -0.612,0.3535 -11.075,16.7026 -23.289,36.2059 -12.093,19.5357 -22.863,36.0616 -23.934,36.6802 -1.072,0.6188 -7.135,0.5471 -13.552,-0.1369 -20.795,-2.0782 -27.264,0.3297 -14.218,5.2489 12.234,4.572 14.646,7.1596 12.867,13.8004 -1.165,4.3467 -10.749,13.5547 -23.515,22.5576 -4.262,2.8695 -12.216,1.6441 -20.504,-3.1648 -3.363,-1.9365 -6.341,-3.3814 -6.494,-3.293 -0.153,0.088 1.768,3.0619 4.469,6.5033 5.901,7.9221 6.791,10.8783 4.027,12.9846 -3.312,2.2184 -29.826,-6.0505 -34.023,-10.6693 -13.156,-14.6543 -43.261,-49.1205 -50.57,-58.0669 l -8.973,-10.9453 -2.519,-14.2631 c -3.336,-17.9759 -3.297,-16.6715 -1.079,-33.1592 2.258,-17.1239 2.55,-18.2105 4.602,-17.6605 1.57,0.4205 8.692,16.8229 15.618,35.8902 l 3.13,8.6032 8.773,2.9978 c 9.916,3.5628 11.822,5.6263 13.518,14.7512 0.705,3.1653 1.828,6.7015 2.6,7.6847 1.093,1.7164 1.528,1.0567 2.79,-3.6522 1.424,-5.3126 1.641,-5.6425 3.983,-4.2386 1.44,0.9035 4.191,3.1936 6.129,5.1364 2.984,2.8701 2.695,2.0162 -1.556,-4.8169 -7.474,-11.7085 -6.845,-13.0927 10.004,-23.3307 18.106,-11.0659 19.202,-11.29 32.369,-6.3384 5.843,2.3421 11.332,4.0718 12.33,4.2098 1.031,0.017 -0.681,-2.7707 -3.712,-6.4299 -5.234,-6.0613 -6.823,-10.7575 -4.846,-14.757 0.468,-0.7804 13.939,-13.8649 30.053,-29.0879 16.114,-15.2231 28.94,-27.8333 28.698,-27.898 -1.449,-0.3882 -10.8,2.1531 -28.175,7.5915 -22.038,6.9064 -31.984,8.7706 -46.051,8.6249 -33.923,-0.419 -67.368,-9.3807 -92.278,-24.5965 -20.558,-12.6259 -51.558,-46.1672 -58.366,-63.2616 -4.391,-11.1412 -8.659,-24.1905 -10.148,-31.1894 -2.354,-11.501 -0.03,-28.8663 7.094,-54.0041 3.42,-12.2832 7.777,-26.1273 9.554,-30.8276 l 3.207,-8.5876 9.96,13.5393 c 14.406,19.6479 15.835,23.0073 18.647,41.4899 2.677,17.5404 3.246,19.7634 3.647,13.9181 0.568,-10.3299 2.022,-21.0695 2.788,-21.5115 1.837,-1.0606 16.635,13.2574 26.018,25.0889 8.787,11.1544 9.848,12.9915 9.352,17.2585 -0.71,7.9625 -0.108,22.6178 1.237,29.1898 2.226,10.0435 10.148,31.1894 12.08,31.707 0.362,0.097 0.311,-4.0578 -0.03,-9.0665 -1.385,-20.4295 1.795,-47.2709 5.271,-44.7868 4.224,3.0729 34.703,20.6868 40.482,23.2703 9.745,4.6819 17.175,6.4139 35.547,8.3603 18.461,2.0995 23.526,2.0331 30.027,-0.4955 6.106,-2.5049 7.93,-6.416 7.241,-15.9181 -0.553,-8.5599 1.358,-17.6241 5.416,-24.5601 1.437,-2.4622 8.348,-11.3513 15.524,-19.7812 15.53,-18.356 18.129,-23.2243 21.981,-39.533 2.217,-9.241 3.365,-12.557 4.451,-12.2659 0.845,0.2265 6.226,12.021 11.99,26.2477 l 10.509,25.9801 -3.258,4.4328 c -2.234,3.0248 -4.511,8.6263 -6.808,17.1989 -3.065,10.955 -3.318,13.3461 -1.962,17.4623 l 1.436,4.7846 5.716,-6.3623 c 17.214,-19.3282 43.102,-60.4025 81.505,-129.8289 41.872,-75.6142 76.125,-163.3638 86.663,-222.0097 3.057,-17.6865 7.672,-59.5431 7.613,-70.4294 -0.168,-35.1148 -15.807,-93.1399 -36.867,-137.2174 -13.501,-28.3349 -25.382,-44.8476 -44.413,-61.7232 z"
       id="path1"
       sodipodi:nodetypes="cccccccsccscsscccccsccccccccscccsccccccccccccccccscccsccccsccccccccccccccccccccccccccccccccccssscccsccccccccccscsccsccscccccccscccccsccccccccsscccccccccccscccscccccccccsccccccccccccc"
       style="fill:#803300;fill-opacity:1;stroke-width:0.125" />
    <circle
       id="path13"
       style="fill:#000000;stroke:#000000;stroke-width:0.9375"
       cx="11128.59"
       cy="-1277.2811"
       r="0.22211689"
       transform="matrix(0.96592583,0.25881904,0.25881904,-0.96592583,0,0)" />
    <circle
       id="path15"
       style="fill:#000000;stroke:#000000;stroke-width:0.9375"
       cx="11252.128"
       cy="-1356.6985"
       r="0.22211689"
       transform="matrix(0.96592583,0.25881904,0.25881904,-0.96592583,0,0)" />
    <path
       style="opacity:1;fill:#803300;fill-opacity:1;stroke:#000000;stroke-width:0;stroke-miterlimit:0;stroke-dasharray:none"
       id="path16"
       d="m 10441.019,4184.4584 c -1.212,-0.9779 -2.321,-2.0755 -3.448,-3.1486 -2.041,-1.9931 -4.01,-4.0577 -6.027,-6.0759 -2.905,-2.9691 -5.87,-5.878 -8.894,-8.7255 -3.969,-3.7613 -8.092,-7.3498 -12.283,-10.859 -5.446,-4.541 -11.195,-8.6941 -17.051,-12.6864 -6.956,-4.7805 -14.36,-8.832 -21.865,-12.6694 -8.125,-4.0931 -16.553,-7.5219 -25.077,-10.6807 -8.762,-3.2907 -17.738,-5.9445 -26.767,-8.3854 -8.974,-2.398 -18.079,-4.2271 -27.248,-5.6851 -8.866,-1.4547 -17.833,-1.7446 -26.795,-1.4802 -8.476,0.2235 -16.689,2.0724 -24.67,4.8175 -22.029,9.4348 -51.817,22.8244 51.678,-23.1889 1.217,-0.5407 -2.408,1.1365 -3.587,1.754 -2.975,1.5581 -4.024,2.2857 -6.872,4.06 -6.776,4.3081 -12.816,9.5921 -18.625,15.1013 -5.691,5.4192 -10.787,11.3999 -15.63,17.5752 -4.724,5.8913 -8.519,12.345 -11.245,19.3747 -2.614,7.6786 -2.598,15.6994 -1.705,23.6572 1.462,9.5701 5.038,18.5979 8.868,27.4272 4.368,9.845 9.706,19.2041 15.285,28.4011 5.936,9.7041 12.479,19.0093 19.247,28.1446 7.116,9.4574 14.713,18.5353 22.472,27.4675 7.909,9.1116 16.256,17.8237 24.762,26.3754 8.622,8.6697 17.718,16.8411 26.99,24.8057 9.422,8.0374 19.232,15.5974 29.149,23.0077 10.002,7.4492 20.258,14.5459 30.586,21.5318 10.268,6.9258 20.671,13.6479 31.075,20.3674 10.161,6.5264 20.366,12.9837 30.597,19.3982 9.94,6.2433 19.941,12.3885 29.939,18.5361 4.877,2.9977 9.755,5.994 14.632,8.9903 l -61.375,32.1145 v 0 c -4.872,-3.0011 -9.743,-6.0019 -14.613,-9.0047 -9.999,-6.1683 -19.993,-12.3458 -29.931,-18.6107 -10.236,-6.4467 -20.445,-12.9348 -30.606,-19.4982 -10.425,-6.7603 -20.842,-13.5372 -31.123,-20.5161 -10.38,-7.0811 -20.686,-14.2741 -30.734,-21.8224 -10.002,-7.5409 -19.888,-15.2404 -29.377,-23.4241 -9.356,-8.1251 -18.539,-16.4529 -27.248,-25.2763 -8.58,-8.6893 -16.998,-17.541 -24.985,-26.7831 -7.846,-9.0883 -15.536,-18.3172 -22.736,-27.9308 -6.88,-9.3175 -13.531,-18.8071 -19.572,-28.6963 -5.731,-9.4669 -11.224,-19.0928 -15.745,-29.2081 -4.125,-9.4014 -7.937,-19.0067 -9.795,-29.1515 -1.313,-8.8372 -1.672,-17.7565 0.444,-26.522 2.185,-7.7958 5.616,-15.0399 10.499,-21.5393 4.733,-6.4923 9.731,-12.7974 15.346,-18.5577 5.726,-5.8295 11.609,-11.5476 18.254,-16.3391 25.262,-18.2097 54.899,-29.812 84.459,-39.3501 8.401,-2.0728 16.957,-3.2847 25.635,-3.123 9.18,0.1529 18.336,0.865 27.372,2.5624 9.279,1.7113 18.501,3.7237 27.579,6.3097 9.142,2.6245 18.213,5.4971 27.083,8.9413 8.675,3.39 17.256,7.0336 25.509,11.3674 7.679,4.073 15.226,8.399 22.367,13.3705 6.005,4.1729 11.922,8.4803 17.526,13.1849 4.302,3.6076 8.534,7.2986 12.622,11.148 3.071,2.9016 6.097,5.8502 9.107,8.8149 1.977,1.9408 3.935,3.9053 6.038,5.7102 1.04,0.8889 1.626,1.9939 2.76,2.7621 z"
       inkscape:label="path16"
       sodipodi:nodetypes="cccccccccccccsccccccccccccccccccsccccccccccccccccccccccccccccc" />
    <path
       d="m 10373.777,4823.7193 c 4.14,-0.9613 13.019,-6.0878 22.416,-13.1462 6.939,-5.1289 13.955,-7.6488 18.302,-6.4841 1.57,0.4206 10.243,5.7211 19.27,11.634 8.995,6.0336 16.735,10.9546 16.977,11.0193 0.362,0.097 -4.049,-8.0729 -9.882,-18.1771 l -10.607,-18.3711 3.394,-3.4905 c 1.822,-1.9706 5.514,-5.1225 8.093,-7.0197 5.77,-4.1479 7.307,-3.6066 20.791,5.9592 15.133,10.6547 14.609,11.1614 7.15,-6.8839 -3.669,-9.0065 -6.598,-16.909 -6.372,-17.7542 0.194,-0.7244 7.136,-7.7938 15.334,-15.691 l 14.857,-14.3953 7.16,5.1538 c 3.894,2.8551 7.345,4.9446 7.652,4.7679 0.426,-0.1444 -1.141,-2.5055 -3.312,-5.0284 -4.905,-5.8436 -5.562,-8.2197 -3.944,-14.2567 2.223,-7.8158 8.668,-10.6182 16.643,-7.0577 5.537,2.5188 15.817,11.4849 20.946,18.4238 2.106,2.7643 3.449,4.0301 3.137,2.7817 -0.625,-2.4969 -19.776,-33.8983 -24.077,-39.5801 -2.315,-2.9498 -2.53,-4.5604 -1.454,-9.0602 2.282,-9.4825 9.602,-10.2387 19.802,-1.941 2.662,2.1369 4.851,3.6292 4.916,3.3877 0.06,-0.2415 -2.145,-4.0688 -4.829,-8.5408 -6.759,-10.9991 -7.809,-15.292 -6.531,-26.3378 0.448,-5.0561 1.155,-16.3843 1.39,-24.9916 0.554,-18.4867 0.886,-20.2094 3.372,-18.3786 6.83,4.936 16.243,18.5873 26.019,37.6419 13.657,26.306 17.093,34.7325 19.863,48.5449 l 2.12,10.921 -9.99,38.7341 -9.991,38.734 -11.124,10.6073 c -22.991,22.0509 -45.727,39.7703 -61.236,47.9083 -6.027,3.1733 -29.096,10.0623 -49.795,14.8688 -6.911,1.6423 -9.69,2.8388 -8.765,3.7336 0.836,0.7418 8.861,3.1509 17.828,5.4243 l 16.365,4.126 13.526,14.236 c 13.647,14.2683 23.83,23.5966 26.728,24.3731 0.845,0.2264 -4.611,-8.8708 -12.062,-20.1846 -7.604,-11.2255 -14.274,-22.0715 -15.028,-24.0853 l -1.518,-3.5125 5.313,1.4235 c 6.882,1.8441 16.313,-0.029 30.484,-6.0669 20.156,-8.5754 26.219,-8.5037 36.16,0.7599 4.271,3.862 5.711,4.7655 4.804,2.84 -0.643,-1.4662 -3.133,-6.6627 -5.325,-11.5207 -4.217,-8.8944 -5.499,-13.7673 -3.567,-13.2497 2.173,0.5823 10.244,-8.7724 16.949,-19.7875 7.172,-11.7956 11.446,-17.1209 14.249,-17.9228 1.007,-0.3772 3.378,2.8464 6.166,8.3815 l 4.611,8.8707 -2.559,-8.3208 c -4.684,-15.3607 -4.584,-17.6634 0.635,-32.3117 4.775,-13.4733 8.842,-20.9245 14.105,-25.5964 l 3.08,-2.7984 3.056,9.36 c 5.512,16.6178 13.957,71.5504 14.078,91.3825 0.01,4.7909 -1.247,12.8656 -3.221,20.2307 l -3.147,12.2272 -13.634,15.6286 c -27.204,31.0159 -47.488,45.3804 -78.622,55.8027 -23.755,7.9993 -31.961,9.1651 -47.636,7.2944 -18.79,-2.3173 -32.567,-8.8559 -80.071,-38.2783 -15.545,-9.6004 -29.111,-17.8941 -30.1,-18.5475 -1.77,-1.1213 -1.885,0.2715 -1.116,10.4421 1.301,16.3953 3.409,24.4659 11.197,42.729 7.179,16.6762 13.823,29.068 20.961,39.1335 l 4.116,5.8909 -6.161,14.7841 c -3.505,8.2491 -6.848,15.8945 -7.566,17.1255 -2.84,4.8037 1.57,0.4206 12.158,-12.5303 6.281,-7.505 11.594,-13.3283 12.077,-13.1989 0.572,0.2825 8.547,3.843 17.906,8.0332 l 16.884,7.5005 -0.213,3.6956 c -0.156,2.0289 -0.829,5.9896 -1.452,8.799 l -1.327,4.9504 3.621,-4.3357 c 4.121,-5.2369 9.132,-7.5176 17.482,-8.2565 22.927,-2.0097 26.607,-2.7058 31.539,-5.655 6.156,-3.6562 8.426,-3.4361 11.102,1.5513 3.438,6.4859 3.579,16.1001 0.215,28.6571 -1.683,6.2786 -2.591,11.5998 -1.987,11.7616 1.449,0.3882 7.582,-18.1562 14.474,-43.874 l 6.017,-22.4577 6.318,-4.26 c 8.099,-5.5945 12.746,-6.0318 17.467,-1.9196 7.319,6.4906 8.081,22.4827 2.193,44.4575 -2.103,7.8481 -5.036,16.3797 -6.416,19.1157 -3.131,5.8903 -25.078,30.809 -43.774,49.8698 l -13.39,13.7528 -13.763,1.6181 c -17.226,1.9843 -26.501,1.8283 -39.679,-0.6675 -15.263,-2.925 -39.478,-14.4602 -65.965,-31.5219 -6.509,-4.2028 -7.071,-5.0007 -14.082,-20.8553 -4.031,-9.1035 -8.967,-22.0731 -11.093,-29.1131 -2.037,-6.8868 -4.893,-15.5461 -6.378,-19.1793 -5.555,-14.0413 -7.143,-25.9843 -6.643,-53.932 0.1,-7.609 -0.257,-13.5276 -0.87,-13.174 -0.612,0.3535 -11.075,16.7026 -23.289,36.2059 -12.093,19.5357 -22.863,36.0616 -23.934,36.6802 -1.072,0.6188 -7.135,0.5471 -13.552,-0.1369 -20.795,-2.0782 -27.264,0.3297 -14.218,5.2489 12.234,4.572 14.646,7.1596 12.867,13.8004 -1.165,4.3467 -10.749,13.5547 -23.515,22.5576 -4.262,2.8695 -12.216,1.6441 -20.504,-3.1648 -3.363,-1.9365 -6.341,-3.3814 -6.494,-3.293 -0.153,0.088 1.768,3.0619 4.469,6.5033 5.901,7.9221 6.791,10.8783 4.027,12.9846 -3.312,2.2184 -29.826,-6.0505 -34.023,-10.6693 -13.156,-14.6543 -43.261,-49.1205 -50.57,-58.0669 l -8.973,-10.9453 -2.519,-14.2631 c -3.336,-17.9759 -3.297,-16.6715 -1.079,-33.1592 2.258,-17.1239 2.55,-18.2105 4.602,-17.6605 1.57,0.4205 8.692,16.8229 15.618,35.8902 l 3.13,8.6032 8.773,2.9978 c 9.916,3.5628 11.822,5.6263 13.518,14.7512 0.705,3.1653 1.828,6.7015 2.6,7.6847 1.093,1.7164 1.528,1.0567 2.79,-3.6522 1.424,-5.3126 1.641,-5.6425 3.983,-4.2386 1.44,0.9035 4.191,3.1936 6.129,5.1364 2.984,2.8701 2.695,2.0162 -1.556,-4.8169 -7.474,-11.7085 -6.845,-13.0927 10.004,-23.3307 18.106,-11.0659 19.202,-11.29 32.369,-6.3384 5.843,2.3421 11.332,4.0718 12.33,4.2098 1.031,0.017 -0.681,-2.7707 -3.712,-6.4299 -5.234,-6.0613 -6.823,-10.7575 -4.846,-14.757 0.468,-0.7804 13.939,-13.8649 30.053,-29.0879 16.114,-15.2231 28.94,-27.8333 28.698,-27.898 -1.449,-0.3882 -10.8,2.1531 -28.175,7.5915 -22.038,6.9064 -31.984,8.7706 -46.051,8.6249 -33.923,-0.419 -67.368,-9.3807 -92.278,-24.5965 -20.558,-12.6259 -51.558,-46.1672 -58.366,-63.2616 -4.391,-11.1412 -8.659,-24.1905 -10.148,-31.1894 -2.354,-11.501 -0.03,-28.8663 7.094,-54.0041 3.42,-12.2832 7.777,-26.1273 9.554,-30.8276 l 3.207,-8.5876 9.96,13.5393 c 14.406,19.6479 15.835,23.0073 18.647,41.4899 2.677,17.5404 3.246,19.7634 3.647,13.9181 0.568,-10.3299 2.022,-21.0695 2.788,-21.5115 1.837,-1.0606 16.635,13.2574 26.018,25.0889 8.787,11.1544 9.848,12.9915 9.352,17.2585 -0.71,7.9625 -0.108,22.6178 1.237,29.1898 2.226,10.0435 10.148,31.1894 12.08,31.707 0.362,0.097 0.311,-4.0578 -0.03,-9.0665 -1.385,-20.4295 1.795,-47.2709 5.271,-44.7868 4.224,3.0729 34.703,20.6868 40.482,23.2703 9.745,4.6819 17.175,6.4139 35.547,8.3603 18.461,2.0995 23.526,2.0331 30.027,-0.4955 6.106,-2.5049 7.93,-6.416 7.241,-15.9181 -0.553,-8.5599 1.358,-17.6241 5.416,-24.5601 1.437,-2.4622 8.348,-11.3513 15.524,-19.7812 15.53,-18.356 18.129,-23.2243 21.981,-39.533 2.217,-9.241 3.365,-12.557 4.451,-12.2659 0.845,0.2265 6.226,12.021 11.99,26.2477 l 10.509,25.9801 -3.258,4.4328 c -2.234,3.0248 -4.511,8.6263 -6.808,17.1989 -3.065,10.955 -3.318,13.3461 -1.962,17.4623 l 1.436,4.7846 z"
       id="path2"
       sodipodi:nodetypes="ccscsscccccsccccccccscccsccccccccccccccccscccsccccsccccccccccccccccccccccccccccccccccssscccsccccccccccscsccsccscccccccscccccsccccccccsscccccccccccscccscccccccccsccccccc"
       style="fill:#007e00;fill-opacity:1;stroke:#000000;stroke-width:10;stroke-dasharray:none;stroke-opacity:1" />
  </g>
</svg>
